<svg width="32" height="31" viewBox="0 0 32 31" fill="none" xmlns="http://www.w3.org/2000/svg">
<path d="M21.2417 10.6896H23.8624C24.5575 10.6896 25.224 10.9556 25.7155 11.4289C26.207 11.9022 26.4831 12.5442 26.4831 13.2136V26.3381C26.4831 27.0075 26.207 27.6495 25.7155 28.1228C25.224 28.5961 24.5575 28.8621 23.8624 28.8621H8.13827C7.44322 28.8621 6.77663 28.5961 6.28516 28.1228C5.79369 27.6495 5.51758 27.0075 5.51758 26.3381V13.2136C5.51758 12.5442 5.79369 11.9022 6.28516 11.4289C6.77663 10.9556 7.44322 10.6896 8.13827 10.6896H10.759" stroke="#E2AB00" stroke-width="2.5" stroke-linecap="round" stroke-linejoin="round"/>
<path d="M11.0342 16.3158L15.9997 21.3793L20.9652 16.3158M15.9997 2.13794V20.3666" stroke="#E2AB00" stroke-width="2.5" stroke-linecap="round" stroke-linejoin="round"/>
</svg>
