<svg width="51" height="40" viewBox="0 0 51 40" fill="none" xmlns="http://www.w3.org/2000/svg">
<path d="M44.2857 0H6.32653C4.64918 0.0018048 3.04105 0.672837 1.85498 1.86586C0.668914 3.05888 0.00179428 4.67645 0 6.36364V33.6364C0.00179428 35.3236 0.668914 36.9411 1.85498 38.1341C3.04105 39.3272 4.64918 39.9982 6.32653 40H44.2857C45.9631 39.9982 47.5712 39.3272 48.7573 38.1341C49.9433 36.9411 50.6105 35.3236 50.6123 33.6364V6.36364C50.6105 4.67645 49.9433 3.05888 48.7573 1.86586C47.5712 0.672837 45.9631 0.0018048 44.2857 0ZM42.6838 10.5261L26.4155 23.2534C26.0983 23.5015 25.7079 23.6361 25.3061 23.6361C24.9043 23.6361 24.514 23.5015 24.1967 23.2534L7.9285 10.5261C7.73736 10.3809 7.57682 10.199 7.4562 9.99086C7.33557 9.78272 7.25728 9.55255 7.22586 9.31371C7.19444 9.07487 7.21052 8.83213 7.27318 8.5996C7.33583 8.36707 7.4438 8.14938 7.59082 7.95918C7.73784 7.76899 7.92097 7.61008 8.12957 7.49169C8.33817 7.3733 8.56808 7.29779 8.80595 7.26955C9.04381 7.24132 9.28489 7.26091 9.51516 7.3272C9.74543 7.39348 9.96031 7.50514 10.1473 7.65568L25.3061 19.5148L40.4649 7.65568C40.844 7.36775 41.3205 7.24147 41.7914 7.30414C42.2623 7.36682 42.6897 7.61341 42.9813 7.99059C43.2728 8.36778 43.4051 8.84524 43.3494 9.31973C43.2937 9.79422 43.0546 10.2276 42.6838 10.5261Z" fill="#B7B7B7"/>
</svg>
