<svg width="31" height="31" viewBox="0 0 31 31" fill="none" xmlns="http://www.w3.org/2000/svg">
<path d="M14.0174 0H16.9826V6.2H14.0174V0ZM14.0174 24.8H16.9826V31H14.0174V24.8ZM21.0278 7.87515L25.4118 3.49107L27.5086 5.58782L23.1245 9.97189L21.0278 7.87515ZM3.49188 25.4115L7.87595 21.0274L9.9727 23.1242L5.58863 27.5083L3.49188 25.4115ZM24.8 14.0174H31V16.9826H24.8V14.0174ZM0 14.0174H6.2V16.9826H0V14.0174ZM21.028 23.1247L23.1247 21.0279L27.5088 25.412L25.4121 27.5087L21.028 23.1247ZM3.491 5.58809L5.58775 3.49134L9.97182 7.87541L7.87508 9.97209L3.491 5.58809ZM15.5 22.3739C14.1405 22.3739 12.8115 21.9708 11.6811 21.2155C10.5506 20.4601 9.6696 19.3866 9.14933 18.1305C8.62906 16.8745 8.49294 15.4924 8.75817 14.159C9.0234 12.8256 9.67808 11.6007 10.6394 10.6394C11.6007 9.67808 12.8256 9.0234 14.159 8.75817C15.4924 8.49294 16.8745 8.62906 18.1305 9.14933C19.3866 9.6696 20.4601 10.5506 21.2155 11.6811C21.9708 12.8115 22.3739 14.1405 22.3739 15.5C22.3718 17.3224 21.6469 19.0696 20.3582 20.3582C19.0696 21.6469 17.3224 22.3718 15.5 22.3739Z" fill="#939393"/>
</svg>
