<svg width="32" height="18" viewBox="0 0 32 18" fill="none" xmlns="http://www.w3.org/2000/svg">
<path d="M23 18H9C4.0375 18 0 13.9625 0 9C0 4.0375 4.0375 0 9 0H23C27.9625 0 32 4.0375 32 9C32 13.9625 27.9625 18 23 18ZM23 2C21.6155 2 20.2622 2.41054 19.111 3.17971C17.9599 3.94888 17.0627 5.04213 16.5328 6.32122C16.003 7.6003 15.8644 9.00776 16.1345 10.3656C16.4046 11.7235 17.0713 12.9708 18.0503 13.9497C19.0292 14.9287 20.2765 15.5954 21.6344 15.8655C22.9922 16.1356 24.3997 15.997 25.6788 15.4672C26.9579 14.9373 28.0511 14.0401 28.8203 12.889C29.5895 11.7378 30 10.3845 30 9C29.998 7.14409 29.2599 5.36477 27.9476 4.05244C26.6352 2.74012 24.8559 2.00199 23 2Z" fill="white"/>
</svg>
