<svg width="47" height="39" viewBox="0 0 47 39" fill="none" xmlns="http://www.w3.org/2000/svg">
<path d="M24.4793 39C23.8531 38.9996 23.2435 38.7995 22.74 38.4291L22.6592 38.367L11.4649 29.237H2.93751C2.15844 29.237 1.41127 28.9292 0.860377 28.3813C0.309487 27.8334 0 27.0903 0 26.3154V12.6826C0 11.9077 0.309487 11.1646 0.860377 10.6167C1.41127 10.0688 2.15844 9.76099 2.93751 9.76099H11.4624L22.6568 0.631025L22.7376 0.568941C23.1752 0.248454 23.6937 0.0550004 24.2353 0.0100991C24.7769 -0.0348023 25.3204 0.0706092 25.8053 0.314608C26.2903 0.558606 26.6976 0.931625 26.9821 1.39217C27.2666 1.85271 27.4171 2.38273 27.4168 2.92325V36.076C27.4168 36.8508 27.1073 37.5939 26.5564 38.1419C26.0055 38.6898 25.2584 38.9976 24.4793 38.9976V39ZM35.2502 29.2382C34.9162 29.2381 34.5877 29.1529 34.2961 28.9909C34.0046 28.8289 33.7595 28.5954 33.5842 28.3126C33.4089 28.0299 33.3093 27.7072 33.2947 27.3753C33.2802 27.0434 33.3512 26.7133 33.5011 26.4165C34.6627 24.1157 35.2514 21.7906 35.2514 19.4996C35.2514 17.1429 34.681 14.8835 33.5072 12.5937C33.2824 12.1349 33.2476 11.6066 33.4103 11.1225C33.5731 10.6384 33.9204 10.2372 34.3776 10.0053C34.8348 9.7733 35.3652 9.7291 35.8548 9.88216C36.3444 10.0352 36.754 10.3733 36.9955 10.8237C38.457 13.6759 39.1669 16.5135 39.1669 19.4996C39.1669 22.4005 38.4325 25.316 37.0004 28.1646C36.8375 28.4873 36.5875 28.7587 36.2784 28.9483C35.9693 29.1379 35.6133 29.2383 35.2502 29.2382Z" fill="#E2AB00"/>
<path d="M41.1241 35.0817C40.7802 35.082 40.4423 34.9922 40.1443 34.8213C39.8464 34.6505 39.5989 34.4047 39.4268 34.1085C39.2548 33.8124 39.1641 33.4764 39.1641 33.1344C39.164 32.7923 39.2545 32.4563 39.4264 32.1601C41.7361 28.149 43.0824 24.7892 43.0824 19.4999C43.0824 14.129 41.7434 10.7935 39.4313 6.84574C39.1927 6.4006 39.137 5.88075 39.276 5.39561C39.415 4.91047 39.7378 4.49788 40.1765 4.24471C40.6152 3.99153 41.1356 3.91751 41.628 4.03823C42.1205 4.15894 42.5467 4.46498 42.8168 4.89192C45.3982 9.29378 46.9991 13.2769 46.9991 19.4999C46.9991 25.6303 45.4006 29.6329 42.8229 34.1078C42.6508 34.4043 42.4031 34.6505 42.1049 34.8214C41.8066 34.9924 41.4683 35.0822 41.1241 35.0817Z" fill="#E2AB00"/>
</svg>
